<svg xmlns="http://www.w3.org/2000/svg" viewBox="0 0 512 512" fill="none">
  <defs>
    <linearGradient id="cloak-grad" x1="128" y1="48" x2="384" y2="464" gradientUnits="userSpaceOnUse">
      <stop offset="0%" stop-color="#60A5FA"/>
      <stop offset="50%" stop-color="#3B82F6"/>
      <stop offset="100%" stop-color="#7C3AED"/>
    </linearGradient>
    <linearGradient id="inner-glow" x1="256" y1="160" x2="256" y2="380" gradientUnits="userSpaceOnUse">
      <stop offset="0%" stop-color="#93C5FD" stop-opacity="0.9"/>
      <stop offset="100%" stop-color="#8B5CF6" stop-opacity="0.6"/>
    </linearGradient>
  </defs>
  <!-- Cloak silhouette: hooded figure, geometric and sharp -->
  <path d="
    M256 52
    L256 52
    C220 52 186 72 164 104
    L96 208
    C80 232 72 260 72 290
    L72 360
    C72 380 80 398 96 410
    L144 448
    C152 454 162 456 172 454
    L196 444
    C204 442 210 436 214 428
    L232 384
    C240 368 256 360 256 360
    C256 360 272 368 280 384
    L298 428
    C302 436 308 442 316 444
    L340 454
    C350 456 360 454 368 448
    L416 410
    C432 398 440 380 440 360
    L440 290
    C440 260 432 232 416 208
    L348 104
    C326 72 292 52 256 52
    Z
  " fill="url(#cloak-grad)" />
  <!-- Inner diamond void — the hidden value -->
  <path d="
    M256 180
    L296 256
    L256 340
    L216 256
    Z
  " fill="#0F172A" opacity="0.85"/>
  <!-- Diamond inner glow -->
  <path d="
    M256 200
    L286 256
    L256 318
    L226 256
    Z
  " fill="url(#inner-glow)" opacity="0.25"/>
  <!-- Hood peak accent line -->
  <path d="
    M220 86
    C236 66 276 66 292 86
  " stroke="#93C5FD" stroke-width="4" stroke-linecap="round" fill="none" opacity="0.7"/>
</svg>
